<svg width="34" height="17" viewBox="0 0 34 17" fill="none" xmlns="http://www.w3.org/2000/svg">
<path d="M34 1.87515C33.9078 1.17074 33.3478 0.609305 32.6347 0.5C29.509 0.5 4.50456 0.5 1.37892 0.5C0.597809 0.619794 0 1.2817 0 2.07941C0 3.36182 0 13.6189 0 14.9007C0 15.784 0.731443 16.5 1.63437 16.5C4.70856 16.5 29.305 16.5 32.3792 16.5C33.2106 16.5 33.8971 15.8922 34 15.1055C34 12.4596 34 3.19786 34 1.87515Z" fill="#F6C700"/>
<path d="M4.10059 3.71533H6.79871V13.4121H4.10059V3.71533Z" fill="black"/>
<path d="M11.8969 8.18196C11.6651 6.70413 11.5362 5.88268 11.5108 5.71872C11.3979 4.92764 11.2903 4.23923 11.1874 3.65186C10.9538 3.65186 9.78834 3.65186 7.68921 3.65186V13.3486H10.0527L10.0609 6.94592L11.0555 13.3486H12.7389L13.6821 6.8035L13.6909 13.3486H16.0467V3.65186H12.5219L11.8969 8.18196Z" fill="black"/>
<path d="M20.5011 5.66904C20.5307 5.7927 20.5461 6.07314 20.5461 6.51146C20.5461 6.88741 20.5461 9.89496 20.5461 10.2709C20.5461 10.9163 20.5011 11.3115 20.4118 11.4573C20.3219 11.603 20.0831 11.6753 19.6958 11.6753C19.6958 11.0388 19.6958 5.94672 19.6958 5.31021C19.9896 5.31021 20.1901 5.33947 20.2965 5.39688C20.403 5.45484 20.4715 5.54538 20.5011 5.66904ZM21.7198 13.2498C22.0409 13.1841 22.3105 13.0681 22.5293 12.9031C22.7475 12.7375 22.9006 12.5084 22.9881 12.2152C23.0762 11.9226 23.1283 11.3413 23.1283 10.4719C23.1283 10.1318 23.1283 7.40744 23.1283 7.06682C23.1283 6.14932 23.0898 5.53434 23.0301 5.22188C22.9698 4.90887 22.8202 4.62456 22.5807 4.36952C22.3407 4.11447 21.9906 3.93119 21.5306 3.81968C21.0699 3.70816 20.319 3.65186 19.0128 3.65186C18.8786 3.65186 18.208 3.65186 17 3.65186V13.3486H20.2687C21.0221 13.3265 21.5057 13.2939 21.7198 13.2498Z" fill="black"/>
<path d="M27.4814 11.8006C27.4317 11.9237 27.2141 11.9861 27.0498 11.9861C26.8889 11.9861 26.7819 11.9265 26.7275 11.8067C26.6731 11.6875 26.6465 11.4153 26.6465 10.9891C26.6465 10.733 26.6465 8.68266 26.6465 8.42651C26.6465 7.98487 26.6701 7.7094 26.718 7.59954C26.7653 7.49079 26.8694 7.43558 27.0303 7.43558C27.1946 7.43558 27.4152 7.49796 27.472 7.62328C27.5281 7.74859 27.5565 8.01634 27.5565 8.42651C27.5565 8.59212 27.5565 9.42019 27.5565 10.9113C27.5394 11.4219 27.5145 11.7184 27.4814 11.8006ZM24.0471 13.2641H26.4762C26.5773 12.8937 26.6329 12.6878 26.6441 12.6464C26.8641 12.8948 27.1059 13.0814 27.3714 13.205C27.6357 13.3292 28.0313 13.3911 28.3376 13.3911C28.764 13.3911 29.1317 13.2867 29.4422 13.0775C29.752 12.8688 29.9495 12.6215 30.0335 12.3372C30.1175 12.0524 30.1594 11.6196 30.1594 11.0377C30.1594 10.7655 30.1594 8.58936 30.1594 8.3172C30.1594 7.73203 30.1452 7.35001 30.1174 7.1706C30.0897 6.99118 30.0069 6.80846 29.8691 6.62131C29.7313 6.43417 29.5309 6.28898 29.2683 6.18519C29.0058 6.08141 28.696 6.02952 28.3388 6.02952C28.0284 6.02952 27.631 6.08748 27.3661 6.20175C27.1018 6.31603 26.8617 6.48937 26.6465 6.72178C26.6465 6.51145 26.6465 5.46035 26.6465 3.56738H24.0471V13.2641Z" fill="black"/>
</svg>
